<mxfile host="app.diagrams.net" modified="2022-08-19T00:54:35.222Z" agent="5.0 (Windows NT 10.0; Win64; x64) AppleWebKit/537.36 (KHTML, like Gecko) Chrome/104.0.0.0 Safari/537.36" etag="Nrs6KcJ_2vsz8UVpx_OF" version="20.2.3" type="github">
  <diagram id="ZRupTK8vs-YXc7_zND_B" name="Page-1">
    <mxGraphModel dx="2391" dy="950" grid="1" gridSize="10" guides="1" tooltips="1" connect="1" arrows="1" fold="1" page="1" pageScale="1" pageWidth="827" pageHeight="1169" math="0" shadow="0">
      <root>
        <mxCell id="0" />
        <mxCell id="1" parent="0" />
        <mxCell id="KKQJ6ejsrd65eqMpRz6--28" value="Alt" style="shape=umlFrame;whiteSpace=wrap;html=1;" parent="1" vertex="1">
          <mxGeometry x="1600" y="910" width="300" height="200" as="geometry" />
        </mxCell>
        <mxCell id="K8ekI7t19pRMLevaFeEe-8" value="Alt" style="shape=umlFrame;whiteSpace=wrap;html=1;" parent="1" vertex="1">
          <mxGeometry x="-755" y="740" width="420" height="130" as="geometry" />
        </mxCell>
        <mxCell id="2UmxWIpTpZnCIBJGYqUd-4" style="edgeStyle=orthogonalEdgeStyle;rounded=0;orthogonalLoop=1;jettySize=auto;html=1;entryX=0.25;entryY=0;entryDx=0;entryDy=0;endArrow=none;endFill=0;" parent="1" source="IURKMykqJG9VInVJ1P5J-1" target="2UmxWIpTpZnCIBJGYqUd-1" edge="1">
          <mxGeometry relative="1" as="geometry" />
        </mxCell>
        <mxCell id="IURKMykqJG9VInVJ1P5J-1" value="Instructor&lt;br&gt;&lt;hr&gt;InstructorID&lt;br&gt;Name&lt;br&gt;Address" style="rounded=0;whiteSpace=wrap;html=1;" parent="1" vertex="1">
          <mxGeometry y="30" width="120" height="80" as="geometry" />
        </mxCell>
        <mxCell id="2UmxWIpTpZnCIBJGYqUd-10" style="edgeStyle=orthogonalEdgeStyle;rounded=0;orthogonalLoop=1;jettySize=auto;html=1;entryX=0.5;entryY=0;entryDx=0;entryDy=0;verticalAlign=middle;endArrow=none;endFill=0;" parent="1" source="2UmxWIpTpZnCIBJGYqUd-1" target="2UmxWIpTpZnCIBJGYqUd-2" edge="1">
          <mxGeometry relative="1" as="geometry" />
        </mxCell>
        <mxCell id="2UmxWIpTpZnCIBJGYqUd-1" value="Subject&lt;br&gt;&lt;hr&gt;SubjectID&lt;span style=&quot;color: rgba(0, 0, 0, 0); font-family: monospace; font-size: 0px; text-align: start;&quot;&gt;%3CmxGraphModel%3E%3Croot%3E%3CmxCell%20id%3D%220%22%2F%3E%3CmxCell%20id%3D%221%22%20parent%3D%220%22%2F%3E%3CmxCell%20id%3D%222%22%20value%3D%22Instructor%22%20style%3D%22rounded%3D0%3BwhiteSpace%3Dwrap%3Bhtml%3D1%3B%22%20vertex%3D%221%22%20parent%3D%221%22%3E%3CmxGeometry%20x%3D%2230%22%20y%3D%2290%22%20width%3D%22120%22%20height%3D%2260%22%20as%3D%22geometry%22%2F%3E%3C%2FmxCell%3E%3C%2Froot%3E%3C%2FmxGraphModel%3E&lt;/span&gt;" style="rounded=0;whiteSpace=wrap;html=1;" parent="1" vertex="1">
          <mxGeometry x="110" y="140" width="120" height="60" as="geometry" />
        </mxCell>
        <mxCell id="2UmxWIpTpZnCIBJGYqUd-22" style="edgeStyle=orthogonalEdgeStyle;rounded=0;orthogonalLoop=1;jettySize=auto;html=1;entryX=0;entryY=0.5;entryDx=0;entryDy=0;endArrow=none;endFill=0;" parent="1" source="2UmxWIpTpZnCIBJGYqUd-2" target="2UmxWIpTpZnCIBJGYqUd-21" edge="1">
          <mxGeometry relative="1" as="geometry" />
        </mxCell>
        <mxCell id="2UmxWIpTpZnCIBJGYqUd-2" value="Assessment&lt;br&gt;&lt;hr style=&quot;text-align: left;&quot;&gt;AssessmentID&lt;br&gt;Instructions&lt;br&gt;Upload&lt;br&gt;Due Date" style="rounded=0;whiteSpace=wrap;html=1;" parent="1" vertex="1">
          <mxGeometry x="10" y="250" width="120" height="100" as="geometry" />
        </mxCell>
        <mxCell id="2UmxWIpTpZnCIBJGYqUd-8" style="edgeStyle=orthogonalEdgeStyle;rounded=0;orthogonalLoop=1;jettySize=auto;html=1;entryX=1;entryY=0.5;entryDx=0;entryDy=0;endArrow=none;endFill=0;" parent="1" source="2UmxWIpTpZnCIBJGYqUd-3" target="2UmxWIpTpZnCIBJGYqUd-1" edge="1">
          <mxGeometry relative="1" as="geometry" />
        </mxCell>
        <mxCell id="2UmxWIpTpZnCIBJGYqUd-19" style="edgeStyle=orthogonalEdgeStyle;rounded=0;orthogonalLoop=1;jettySize=auto;html=1;endArrow=none;endFill=0;entryX=1;entryY=0.5;entryDx=0;entryDy=0;exitX=0.75;exitY=1;exitDx=0;exitDy=0;" parent="1" source="2UmxWIpTpZnCIBJGYqUd-3" target="2UmxWIpTpZnCIBJGYqUd-21" edge="1">
          <mxGeometry relative="1" as="geometry">
            <mxPoint x="260" y="290" as="targetPoint" />
          </mxGeometry>
        </mxCell>
        <mxCell id="2UmxWIpTpZnCIBJGYqUd-3" value="Student&lt;br&gt;&lt;hr&gt;StudentID&lt;br&gt;Name&lt;br&gt;Address&lt;br&gt;" style="rounded=0;whiteSpace=wrap;html=1;" parent="1" vertex="1">
          <mxGeometry x="220" y="30" width="120" height="90" as="geometry" />
        </mxCell>
        <mxCell id="2UmxWIpTpZnCIBJGYqUd-5" value="1..*" style="text;html=1;strokeColor=none;fillColor=none;align=center;verticalAlign=middle;whiteSpace=wrap;rounded=0;" parent="1" vertex="1">
          <mxGeometry x="120" y="110" width="60" height="30" as="geometry" />
        </mxCell>
        <mxCell id="2UmxWIpTpZnCIBJGYqUd-6" value="1" style="text;html=1;strokeColor=none;fillColor=none;align=center;verticalAlign=middle;whiteSpace=wrap;rounded=0;" parent="1" vertex="1">
          <mxGeometry x="20" y="110" width="60" height="30" as="geometry" />
        </mxCell>
        <mxCell id="2UmxWIpTpZnCIBJGYqUd-7" value="1..*" style="text;html=1;strokeColor=none;fillColor=none;align=center;verticalAlign=middle;whiteSpace=wrap;rounded=0;" parent="1" vertex="1">
          <mxGeometry x="220" y="170" width="60" height="30" as="geometry" />
        </mxCell>
        <mxCell id="2UmxWIpTpZnCIBJGYqUd-9" value="1" style="text;html=1;strokeColor=none;fillColor=none;align=center;verticalAlign=middle;whiteSpace=wrap;rounded=0;" parent="1" vertex="1">
          <mxGeometry x="260" y="120" width="60" height="30" as="geometry" />
        </mxCell>
        <mxCell id="2UmxWIpTpZnCIBJGYqUd-11" value="1" style="text;html=1;strokeColor=none;fillColor=none;align=center;verticalAlign=middle;whiteSpace=wrap;rounded=0;" parent="1" vertex="1">
          <mxGeometry x="160" y="200" width="60" height="30" as="geometry" />
        </mxCell>
        <mxCell id="2UmxWIpTpZnCIBJGYqUd-12" value="1..*" style="text;html=1;strokeColor=none;fillColor=none;align=center;verticalAlign=middle;whiteSpace=wrap;rounded=0;" parent="1" vertex="1">
          <mxGeometry x="51" y="220" width="60" height="30" as="geometry" />
        </mxCell>
        <mxCell id="2UmxWIpTpZnCIBJGYqUd-20" value="Submits" style="text;html=1;strokeColor=none;fillColor=none;align=center;verticalAlign=middle;whiteSpace=wrap;rounded=0;" parent="1" vertex="1">
          <mxGeometry x="270" y="200" width="60" height="30" as="geometry" />
        </mxCell>
        <mxCell id="2UmxWIpTpZnCIBJGYqUd-21" value="Submission&lt;br&gt;&lt;hr&gt;&lt;br&gt;File&lt;br&gt;Note" style="rounded=0;whiteSpace=wrap;html=1;" parent="1" vertex="1">
          <mxGeometry x="190" y="240" width="120" height="80" as="geometry" />
        </mxCell>
        <mxCell id="2UmxWIpTpZnCIBJGYqUd-23" value="Contains" style="text;html=1;strokeColor=none;fillColor=none;align=center;verticalAlign=middle;whiteSpace=wrap;rounded=0;" parent="1" vertex="1">
          <mxGeometry x="130" y="240" width="60" height="30" as="geometry" />
        </mxCell>
        <mxCell id="2UmxWIpTpZnCIBJGYqUd-24" value="1" style="text;html=1;strokeColor=none;fillColor=none;align=center;verticalAlign=middle;whiteSpace=wrap;rounded=0;" parent="1" vertex="1">
          <mxGeometry x="111" y="290" width="60" height="30" as="geometry" />
        </mxCell>
        <mxCell id="2UmxWIpTpZnCIBJGYqUd-25" value="1..*" style="text;html=1;strokeColor=none;fillColor=none;align=center;verticalAlign=middle;whiteSpace=wrap;rounded=0;" parent="1" vertex="1">
          <mxGeometry x="150" y="280" width="60" height="30" as="geometry" />
        </mxCell>
        <mxCell id="2UmxWIpTpZnCIBJGYqUd-26" value="1..*" style="text;html=1;strokeColor=none;fillColor=none;align=center;verticalAlign=middle;whiteSpace=wrap;rounded=0;" parent="1" vertex="1">
          <mxGeometry x="300" y="280" width="60" height="30" as="geometry" />
        </mxCell>
        <mxCell id="2UmxWIpTpZnCIBJGYqUd-27" style="edgeStyle=orthogonalEdgeStyle;rounded=0;orthogonalLoop=1;jettySize=auto;html=1;exitX=0.25;exitY=0;exitDx=0;exitDy=0;entryX=0;entryY=0;entryDx=0;entryDy=0;endArrow=none;endFill=0;" parent="1" source="2UmxWIpTpZnCIBJGYqUd-9" target="2UmxWIpTpZnCIBJGYqUd-9" edge="1">
          <mxGeometry relative="1" as="geometry" />
        </mxCell>
        <mxCell id="2UmxWIpTpZnCIBJGYqUd-28" value="1..*" style="text;html=1;strokeColor=none;fillColor=none;align=center;verticalAlign=middle;whiteSpace=wrap;rounded=0;" parent="1" vertex="1">
          <mxGeometry x="290" y="120" width="60" height="30" as="geometry" />
        </mxCell>
        <mxCell id="2UmxWIpTpZnCIBJGYqUd-29" value="Enrolls" style="text;html=1;strokeColor=none;fillColor=none;align=center;verticalAlign=middle;whiteSpace=wrap;rounded=0;" parent="1" vertex="1">
          <mxGeometry x="220" y="130" width="60" height="30" as="geometry" />
        </mxCell>
        <mxCell id="2UmxWIpTpZnCIBJGYqUd-30" value="Teach" style="text;html=1;strokeColor=none;fillColor=none;align=center;verticalAlign=middle;whiteSpace=wrap;rounded=0;" parent="1" vertex="1">
          <mxGeometry x="50" y="130" width="60" height="30" as="geometry" />
        </mxCell>
        <mxCell id="S1UreWJhL2JSH4xHvEoi-3" value=": Instructor" style="shape=umlActor;verticalLabelPosition=bottom;verticalAlign=top;html=1;outlineConnect=0;" parent="1" vertex="1">
          <mxGeometry x="-740" y="160" width="30" height="60" as="geometry" />
        </mxCell>
        <mxCell id="S1UreWJhL2JSH4xHvEoi-8" value="" style="endArrow=none;html=1;rounded=0;strokeWidth=3;dashed=1;" parent="1" edge="1">
          <mxGeometry width="50" height="50" relative="1" as="geometry">
            <mxPoint x="-725" y="550" as="sourcePoint" />
            <mxPoint x="-725.5" y="250" as="targetPoint" />
          </mxGeometry>
        </mxCell>
        <mxCell id="S1UreWJhL2JSH4xHvEoi-9" value=": LMS" style="rounded=0;whiteSpace=wrap;html=1;" parent="1" vertex="1">
          <mxGeometry x="-410" y="180" width="120" height="60" as="geometry" />
        </mxCell>
        <mxCell id="S1UreWJhL2JSH4xHvEoi-10" value="" style="endArrow=none;html=1;rounded=0;strokeWidth=3;dashed=1;" parent="1" edge="1">
          <mxGeometry width="50" height="50" relative="1" as="geometry">
            <mxPoint x="-350" y="540" as="sourcePoint" />
            <mxPoint x="-350.5" y="240" as="targetPoint" />
          </mxGeometry>
        </mxCell>
        <mxCell id="S1UreWJhL2JSH4xHvEoi-11" value="" style="endArrow=classic;html=1;rounded=0;strokeWidth=1;" parent="1" edge="1">
          <mxGeometry width="50" height="50" relative="1" as="geometry">
            <mxPoint x="-720" y="310" as="sourcePoint" />
            <mxPoint x="-350" y="310" as="targetPoint" />
          </mxGeometry>
        </mxCell>
        <mxCell id="S1UreWJhL2JSH4xHvEoi-12" value="logIn(id, password)" style="text;html=1;align=center;verticalAlign=middle;resizable=0;points=[];autosize=1;strokeColor=none;fillColor=none;" parent="1" vertex="1">
          <mxGeometry x="-595" y="275" width="120" height="30" as="geometry" />
        </mxCell>
        <mxCell id="S1UreWJhL2JSH4xHvEoi-13" value="" style="endArrow=classic;html=1;rounded=0;strokeWidth=1;" parent="1" edge="1">
          <mxGeometry width="50" height="50" relative="1" as="geometry">
            <mxPoint x="-720" y="379" as="sourcePoint" />
            <mxPoint x="-350" y="379" as="targetPoint" />
          </mxGeometry>
        </mxCell>
        <mxCell id="S1UreWJhL2JSH4xHvEoi-14" value="createAssessment(instructions, uploadMethod)" style="text;html=1;align=center;verticalAlign=middle;resizable=0;points=[];autosize=1;strokeColor=none;fillColor=none;" parent="1" vertex="1">
          <mxGeometry x="-670" y="350" width="270" height="30" as="geometry" />
        </mxCell>
        <mxCell id="ciVQDEJXkHYUGOeT8WDG-1" value="" style="endArrow=classic;html=1;rounded=0;strokeWidth=1;" parent="1" edge="1">
          <mxGeometry width="50" height="50" relative="1" as="geometry">
            <mxPoint x="-720" y="444.5" as="sourcePoint" />
            <mxPoint x="-350" y="444.5" as="targetPoint" />
          </mxGeometry>
        </mxCell>
        <mxCell id="ciVQDEJXkHYUGOeT8WDG-2" value="publishAssessment" style="text;html=1;align=center;verticalAlign=middle;resizable=0;points=[];autosize=1;strokeColor=none;fillColor=none;" parent="1" vertex="1">
          <mxGeometry x="-600" y="420" width="130" height="30" as="geometry" />
        </mxCell>
        <mxCell id="ciVQDEJXkHYUGOeT8WDG-3" value=": Student" style="shape=umlActor;verticalLabelPosition=bottom;verticalAlign=top;html=1;outlineConnect=0;" parent="1" vertex="1">
          <mxGeometry x="-740" y="560" width="30" height="60" as="geometry" />
        </mxCell>
        <mxCell id="ciVQDEJXkHYUGOeT8WDG-6" value="" style="endArrow=none;html=1;rounded=0;strokeWidth=3;dashed=1;" parent="1" edge="1">
          <mxGeometry width="50" height="50" relative="1" as="geometry">
            <mxPoint x="-725" y="1160" as="sourcePoint" />
            <mxPoint x="-725.5" y="640" as="targetPoint" />
          </mxGeometry>
        </mxCell>
        <mxCell id="ciVQDEJXkHYUGOeT8WDG-7" value="" style="endArrow=none;html=1;rounded=0;strokeWidth=3;dashed=1;" parent="1" edge="1">
          <mxGeometry width="50" height="50" relative="1" as="geometry">
            <mxPoint x="-350" y="1160" as="sourcePoint" />
            <mxPoint x="-350.5" y="630" as="targetPoint" />
          </mxGeometry>
        </mxCell>
        <mxCell id="ciVQDEJXkHYUGOeT8WDG-8" value=": LMS" style="rounded=0;whiteSpace=wrap;html=1;" parent="1" vertex="1">
          <mxGeometry x="-414" y="570" width="120" height="60" as="geometry" />
        </mxCell>
        <mxCell id="ciVQDEJXkHYUGOeT8WDG-9" value="" style="endArrow=classic;html=1;rounded=0;strokeWidth=1;" parent="1" edge="1">
          <mxGeometry width="50" height="50" relative="1" as="geometry">
            <mxPoint x="-720" y="680" as="sourcePoint" />
            <mxPoint x="-350" y="680" as="targetPoint" />
          </mxGeometry>
        </mxCell>
        <mxCell id="ciVQDEJXkHYUGOeT8WDG-10" value="logIn(id, pw)" style="text;html=1;align=center;verticalAlign=middle;resizable=0;points=[];autosize=1;strokeColor=none;fillColor=none;" parent="1" vertex="1">
          <mxGeometry x="-590" y="650" width="90" height="30" as="geometry" />
        </mxCell>
        <mxCell id="ciVQDEJXkHYUGOeT8WDG-11" value="" style="endArrow=classic;html=1;rounded=0;strokeWidth=1;" parent="1" edge="1">
          <mxGeometry width="50" height="50" relative="1" as="geometry">
            <mxPoint x="-730" y="733" as="sourcePoint" />
            <mxPoint x="-350" y="733" as="targetPoint" />
          </mxGeometry>
        </mxCell>
        <mxCell id="ciVQDEJXkHYUGOeT8WDG-12" value="selectAssessment" style="text;html=1;align=center;verticalAlign=middle;resizable=0;points=[];autosize=1;strokeColor=none;fillColor=none;" parent="1" vertex="1">
          <mxGeometry x="-605" y="710" width="120" height="30" as="geometry" />
        </mxCell>
        <mxCell id="ciVQDEJXkHYUGOeT8WDG-13" value="" style="endArrow=classic;html=1;rounded=0;strokeWidth=1;" parent="1" edge="1">
          <mxGeometry width="50" height="50" relative="1" as="geometry">
            <mxPoint x="-730" y="770" as="sourcePoint" />
            <mxPoint x="-350" y="770" as="targetPoint" />
          </mxGeometry>
        </mxCell>
        <mxCell id="ciVQDEJXkHYUGOeT8WDG-14" value="attachSubmission(zipFile)" style="text;html=1;align=center;verticalAlign=middle;resizable=0;points=[];autosize=1;strokeColor=none;fillColor=none;" parent="1" vertex="1">
          <mxGeometry x="-625" y="740" width="160" height="30" as="geometry" />
        </mxCell>
        <mxCell id="ciVQDEJXkHYUGOeT8WDG-16" value="opt" style="shape=umlFrame;whiteSpace=wrap;html=1;" parent="1" vertex="1">
          <mxGeometry x="-757.5" y="950" width="445" height="90" as="geometry" />
        </mxCell>
        <mxCell id="ciVQDEJXkHYUGOeT8WDG-19" value="" style="endArrow=classic;html=1;rounded=0;strokeWidth=1;" parent="1" edge="1">
          <mxGeometry width="50" height="50" relative="1" as="geometry">
            <mxPoint x="-730" y="1000" as="sourcePoint" />
            <mxPoint x="-350" y="1000" as="targetPoint" />
          </mxGeometry>
        </mxCell>
        <mxCell id="ciVQDEJXkHYUGOeT8WDG-20" value="attachNote(Note)" style="text;html=1;align=center;verticalAlign=middle;resizable=0;points=[];autosize=1;strokeColor=none;fillColor=none;" parent="1" vertex="1">
          <mxGeometry x="-597.5" y="970" width="110" height="30" as="geometry" />
        </mxCell>
        <mxCell id="ciVQDEJXkHYUGOeT8WDG-21" value="" style="endArrow=classic;html=1;rounded=0;strokeWidth=1;" parent="1" edge="1">
          <mxGeometry width="50" height="50" relative="1" as="geometry">
            <mxPoint x="-725" y="1079.9999999999998" as="sourcePoint" />
            <mxPoint x="-345" y="1079.9999999999998" as="targetPoint" />
          </mxGeometry>
        </mxCell>
        <mxCell id="ciVQDEJXkHYUGOeT8WDG-22" value="confirmSubmission" style="text;html=1;align=center;verticalAlign=middle;resizable=0;points=[];autosize=1;strokeColor=none;fillColor=none;" parent="1" vertex="1">
          <mxGeometry x="-597.5" y="1050" width="120" height="30" as="geometry" />
        </mxCell>
        <mxCell id="ciVQDEJXkHYUGOeT8WDG-23" value="" style="endArrow=classic;html=1;rounded=0;strokeWidth=1;" parent="1" edge="1">
          <mxGeometry width="50" height="50" relative="1" as="geometry">
            <mxPoint x="-347.5" y="1139.9999999999998" as="sourcePoint" />
            <mxPoint x="-727.5" y="1139.9999999999998" as="targetPoint" />
          </mxGeometry>
        </mxCell>
        <mxCell id="ciVQDEJXkHYUGOeT8WDG-24" value="emailReceipt" style="text;html=1;align=center;verticalAlign=middle;resizable=0;points=[];autosize=1;strokeColor=none;fillColor=none;" parent="1" vertex="1">
          <mxGeometry x="-587.5" y="1110" width="90" height="30" as="geometry" />
        </mxCell>
        <mxCell id="K8ekI7t19pRMLevaFeEe-1" value="uploading an assignment submission" style="text;html=1;align=center;verticalAlign=middle;resizable=0;points=[];autosize=1;strokeColor=none;fillColor=none;" parent="1" vertex="1">
          <mxGeometry x="-660" y="115" width="220" height="30" as="geometry" />
        </mxCell>
        <mxCell id="K8ekI7t19pRMLevaFeEe-2" value=":TurnItIn" style="rounded=0;whiteSpace=wrap;html=1;" parent="1" vertex="1">
          <mxGeometry x="-200" y="680" width="120" height="60" as="geometry" />
        </mxCell>
        <mxCell id="K8ekI7t19pRMLevaFeEe-3" value="" style="endArrow=none;html=1;rounded=0;strokeWidth=3;dashed=1;" parent="1" edge="1">
          <mxGeometry width="50" height="50" relative="1" as="geometry">
            <mxPoint x="-139.83" y="1090" as="sourcePoint" />
            <mxPoint x="-140.33" y="740" as="targetPoint" />
          </mxGeometry>
        </mxCell>
        <mxCell id="K8ekI7t19pRMLevaFeEe-7" value="attachSubmission(file)" style="text;html=1;align=center;verticalAlign=middle;resizable=0;points=[];autosize=1;strokeColor=none;fillColor=none;" parent="1" vertex="1">
          <mxGeometry x="-320" y="810" width="140" height="30" as="geometry" />
        </mxCell>
        <mxCell id="K8ekI7t19pRMLevaFeEe-10" value="[zip]" style="text;html=1;align=center;verticalAlign=middle;resizable=0;points=[];autosize=1;strokeColor=none;fillColor=none;" parent="1" vertex="1">
          <mxGeometry x="-710" y="740" width="50" height="30" as="geometry" />
        </mxCell>
        <mxCell id="K8ekI7t19pRMLevaFeEe-12" value="____________________-" style="text;html=1;strokeColor=none;fillColor=none;align=center;verticalAlign=middle;whiteSpace=wrap;rounded=0;" parent="1" vertex="1">
          <mxGeometry x="-645" y="800" width="190" height="30" as="geometry" />
        </mxCell>
        <mxCell id="K8ekI7t19pRMLevaFeEe-13" value="[turinitin]" style="text;html=1;align=center;verticalAlign=middle;resizable=0;points=[];autosize=1;strokeColor=none;fillColor=none;" parent="1" vertex="1">
          <mxGeometry x="-740" y="810" width="70" height="30" as="geometry" />
        </mxCell>
        <mxCell id="K8ekI7t19pRMLevaFeEe-15" value="" style="endArrow=classic;html=1;rounded=0;strokeWidth=1;" parent="1" edge="1">
          <mxGeometry width="50" height="50" relative="1" as="geometry">
            <mxPoint x="-725" y="840" as="sourcePoint" />
            <mxPoint x="-140" y="840" as="targetPoint" />
          </mxGeometry>
        </mxCell>
        <mxCell id="K8ekI7t19pRMLevaFeEe-16" value="" style="endArrow=classic;html=1;rounded=0;strokeWidth=1;" parent="1" edge="1">
          <mxGeometry width="50" height="50" relative="1" as="geometry">
            <mxPoint x="-140" y="860" as="sourcePoint" />
            <mxPoint x="-350" y="860" as="targetPoint" />
          </mxGeometry>
        </mxCell>
        <mxCell id="K8ekI7t19pRMLevaFeEe-17" value="confirmSub" style="text;html=1;align=center;verticalAlign=middle;resizable=0;points=[];autosize=1;strokeColor=none;fillColor=none;" parent="1" vertex="1">
          <mxGeometry x="-290" y="860" width="80" height="30" as="geometry" />
        </mxCell>
        <mxCell id="HkgX5lBla5T3OF_uM4Xi-2" style="edgeStyle=orthogonalEdgeStyle;rounded=0;orthogonalLoop=1;jettySize=auto;html=1;entryX=0.25;entryY=0;entryDx=0;entryDy=0;endArrow=block;endFill=1;" parent="1" source="HkgX5lBla5T3OF_uM4Xi-3" target="HkgX5lBla5T3OF_uM4Xi-5" edge="1">
          <mxGeometry relative="1" as="geometry" />
        </mxCell>
        <mxCell id="HkgX5lBla5T3OF_uM4Xi-3" value="Instructor&lt;br&gt;&lt;hr&gt;&amp;nbsp;- instructorID: String&lt;br&gt;- name: String&lt;br&gt;- address: String&lt;br&gt;&lt;hr&gt;+ getInstructorID(): String&lt;br&gt;+ getname(): String&lt;br&gt;+ getAddress(): String" style="rounded=0;whiteSpace=wrap;html=1;" parent="1" vertex="1">
          <mxGeometry x="20" y="439" width="120" height="170" as="geometry" />
        </mxCell>
        <mxCell id="HkgX5lBla5T3OF_uM4Xi-4" style="edgeStyle=orthogonalEdgeStyle;rounded=0;orthogonalLoop=1;jettySize=auto;html=1;entryX=0.5;entryY=0;entryDx=0;entryDy=0;verticalAlign=middle;endArrow=block;endFill=1;startArrow=diamond;startFill=0;" parent="1" source="HkgX5lBla5T3OF_uM4Xi-5" target="HkgX5lBla5T3OF_uM4Xi-7" edge="1">
          <mxGeometry relative="1" as="geometry" />
        </mxCell>
        <mxCell id="HkgX5lBla5T3OF_uM4Xi-5" value="Subject&lt;br&gt;&lt;hr&gt;- subjectID: String&lt;br&gt;&lt;hr&gt;+ getSubjectID(): String&lt;span style=&quot;color: rgba(0, 0, 0, 0); font-family: monospace; font-size: 0px; text-align: start;&quot;&gt;%3CmxGraphModel%3E%3Croot%3E%3CmxCell%20id%3D%220%22%2F%3E%3CmxCell%20id%3D%221%22%20parent%3D%220%22%2F%3E%3CmxCell%20id%3D%222%22%20value%3D%22Instructor%22%20style%3D%22rounded%3D0%3BwhiteSpace%3Dwrap%3Bhtml%3D1%3B%22%20vertex%3D%221%22%20parent%3D%221%22%3E%3CmxGeometry%20x%3D%2230%22%20y%3D%2290%22%20width%3D%22120%22%20height%3D%2260%22%20as%3D%22geometry%22%2F%3E%3C%2FmxCell%3E%3C%2Froot%3E%3C%2FmxGraphModel%3E&lt;/span&gt;" style="rounded=0;whiteSpace=wrap;html=1;" parent="1" vertex="1">
          <mxGeometry x="130" y="640" width="120" height="100" as="geometry" />
        </mxCell>
        <mxCell id="HkgX5lBla5T3OF_uM4Xi-6" style="edgeStyle=orthogonalEdgeStyle;rounded=0;orthogonalLoop=1;jettySize=auto;html=1;endArrow=block;endFill=1;entryX=0;entryY=0.5;entryDx=0;entryDy=0;" parent="1" source="HkgX5lBla5T3OF_uM4Xi-7" target="HkgX5lBla5T3OF_uM4Xi-18" edge="1">
          <mxGeometry relative="1" as="geometry" />
        </mxCell>
        <mxCell id="HkgX5lBla5T3OF_uM4Xi-36" style="edgeStyle=orthogonalEdgeStyle;rounded=0;orthogonalLoop=1;jettySize=auto;html=1;entryX=0.5;entryY=0;entryDx=0;entryDy=0;startArrow=diamondThin;startFill=1;endArrow=block;endFill=1;" parent="1" source="HkgX5lBla5T3OF_uM4Xi-7" target="HkgX5lBla5T3OF_uM4Xi-35" edge="1">
          <mxGeometry relative="1" as="geometry" />
        </mxCell>
        <mxCell id="HkgX5lBla5T3OF_uM4Xi-7" value="Assessment&lt;br&gt;&lt;hr style=&quot;text-align: left;&quot;&gt;- assessmentID: String&lt;br&gt;- duedate: Time&lt;br&gt;&lt;hr&gt;+ getID(): String&lt;br&gt;+ setDueDate(Time): Void&lt;br&gt;+ getDueDate(): String" style="rounded=0;whiteSpace=wrap;html=1;" parent="1" vertex="1">
          <mxGeometry x="-60" y="825" width="170" height="165" as="geometry" />
        </mxCell>
        <mxCell id="HkgX5lBla5T3OF_uM4Xi-8" style="edgeStyle=orthogonalEdgeStyle;rounded=0;orthogonalLoop=1;jettySize=auto;html=1;entryX=1;entryY=0.5;entryDx=0;entryDy=0;endArrow=blockThin;endFill=1;exitX=0.25;exitY=1;exitDx=0;exitDy=0;" parent="1" source="HkgX5lBla5T3OF_uM4Xi-10" target="HkgX5lBla5T3OF_uM4Xi-5" edge="1">
          <mxGeometry relative="1" as="geometry">
            <mxPoint x="300" y="610" as="sourcePoint" />
          </mxGeometry>
        </mxCell>
        <mxCell id="HkgX5lBla5T3OF_uM4Xi-10" value="Student&lt;br&gt;&lt;hr&gt;- studentID: String&lt;br&gt;&amp;nbsp;- name: String&lt;br&gt;- address: String&lt;br&gt;&lt;hr&gt;+ getStudentID(): String&lt;br&gt;+ getName(): String&lt;br&gt;+ getAddress(): String" style="rounded=0;whiteSpace=wrap;html=1;" parent="1" vertex="1">
          <mxGeometry x="240" y="410" width="120" height="160" as="geometry" />
        </mxCell>
        <mxCell id="HkgX5lBla5T3OF_uM4Xi-11" value="1..*" style="text;html=1;strokeColor=none;fillColor=none;align=center;verticalAlign=middle;whiteSpace=wrap;rounded=0;" parent="1" vertex="1">
          <mxGeometry x="150" y="610" width="60" height="30" as="geometry" />
        </mxCell>
        <mxCell id="HkgX5lBla5T3OF_uM4Xi-12" value="1" style="text;html=1;strokeColor=none;fillColor=none;align=center;verticalAlign=middle;whiteSpace=wrap;rounded=0;" parent="1" vertex="1">
          <mxGeometry x="40" y="610" width="60" height="30" as="geometry" />
        </mxCell>
        <mxCell id="HkgX5lBla5T3OF_uM4Xi-13" value="1..*" style="text;html=1;strokeColor=none;fillColor=none;align=center;verticalAlign=middle;whiteSpace=wrap;rounded=0;" parent="1" vertex="1">
          <mxGeometry x="240" y="695" width="60" height="30" as="geometry" />
        </mxCell>
        <mxCell id="HkgX5lBla5T3OF_uM4Xi-15" value="1" style="text;html=1;strokeColor=none;fillColor=none;align=center;verticalAlign=middle;whiteSpace=wrap;rounded=0;" parent="1" vertex="1">
          <mxGeometry x="51" y="690" width="110" height="30" as="geometry" />
        </mxCell>
        <mxCell id="HkgX5lBla5T3OF_uM4Xi-16" value="1..*" style="text;html=1;strokeColor=none;fillColor=none;align=center;verticalAlign=middle;whiteSpace=wrap;rounded=0;" parent="1" vertex="1">
          <mxGeometry x="51" y="800" width="60" height="30" as="geometry" />
        </mxCell>
        <mxCell id="HkgX5lBla5T3OF_uM4Xi-18" value="Submission&lt;br&gt;&lt;hr&gt;- content: String&lt;br&gt;- hasNote: Boolean&lt;br&gt;&lt;hr&gt;+setContent(Content): void&lt;br&gt;+getContent(): String&lt;br&gt;+ isNote(Boolean): Void" style="rounded=0;whiteSpace=wrap;html=1;" parent="1" vertex="1">
          <mxGeometry x="300" y="810" width="120" height="160" as="geometry" />
        </mxCell>
        <mxCell id="HkgX5lBla5T3OF_uM4Xi-19" value="Contains" style="text;html=1;strokeColor=none;fillColor=none;align=center;verticalAlign=middle;whiteSpace=wrap;rounded=0;" parent="1" vertex="1">
          <mxGeometry x="51" y="760" width="60" height="30" as="geometry" />
        </mxCell>
        <mxCell id="HkgX5lBla5T3OF_uM4Xi-20" value="1" style="text;html=1;strokeColor=none;fillColor=none;align=center;verticalAlign=middle;whiteSpace=wrap;rounded=0;" parent="1" vertex="1">
          <mxGeometry x="100" y="900" width="60" height="30" as="geometry" />
        </mxCell>
        <mxCell id="HkgX5lBla5T3OF_uM4Xi-21" value="1..*" style="text;html=1;strokeColor=none;fillColor=none;align=center;verticalAlign=middle;whiteSpace=wrap;rounded=0;" parent="1" vertex="1">
          <mxGeometry x="240" y="870" width="60" height="30" as="geometry" />
        </mxCell>
        <mxCell id="HkgX5lBla5T3OF_uM4Xi-25" value="Enrolls" style="text;html=1;strokeColor=none;fillColor=none;align=center;verticalAlign=middle;whiteSpace=wrap;rounded=0;" parent="1" vertex="1">
          <mxGeometry x="270" y="620" width="60" height="30" as="geometry" />
        </mxCell>
        <mxCell id="HkgX5lBla5T3OF_uM4Xi-26" value="Instructs" style="text;html=1;strokeColor=none;fillColor=none;align=center;verticalAlign=middle;whiteSpace=wrap;rounded=0;" parent="1" vertex="1">
          <mxGeometry x="70" y="630" width="60" height="30" as="geometry" />
        </mxCell>
        <mxCell id="HkgX5lBla5T3OF_uM4Xi-29" style="edgeStyle=orthogonalEdgeStyle;rounded=0;orthogonalLoop=1;jettySize=auto;html=1;exitX=0.5;exitY=1;exitDx=0;exitDy=0;startArrow=diamondThin;startFill=1;" parent="1" source="HkgX5lBla5T3OF_uM4Xi-18" target="HkgX5lBla5T3OF_uM4Xi-28" edge="1">
          <mxGeometry relative="1" as="geometry" />
        </mxCell>
        <mxCell id="HkgX5lBla5T3OF_uM4Xi-28" value="Note&lt;br&gt;&lt;hr&gt;- content: String&lt;br&gt;&lt;hr&gt;+ getContent(): String" style="rounded=0;whiteSpace=wrap;html=1;" parent="1" vertex="1">
          <mxGeometry x="300" y="1025" width="120" height="80" as="geometry" />
        </mxCell>
        <mxCell id="HkgX5lBla5T3OF_uM4Xi-31" value="Contains" style="text;html=1;strokeColor=none;fillColor=none;align=center;verticalAlign=middle;whiteSpace=wrap;rounded=0;" parent="1" vertex="1">
          <mxGeometry x="370" y="990" width="60" height="30" as="geometry" />
        </mxCell>
        <mxCell id="HkgX5lBla5T3OF_uM4Xi-34" value="Contains" style="text;html=1;strokeColor=none;fillColor=none;align=center;verticalAlign=middle;whiteSpace=wrap;rounded=0;" parent="1" vertex="1">
          <mxGeometry x="110" y="930" width="60" height="30" as="geometry" />
        </mxCell>
        <mxCell id="HkgX5lBla5T3OF_uM4Xi-35" value="Instruction&lt;br&gt;&lt;hr&gt;- content: String&lt;br&gt;&lt;hr&gt;+ getContent(): String" style="rounded=0;whiteSpace=wrap;html=1;" parent="1" vertex="1">
          <mxGeometry x="-10" y="1080" width="120" height="80" as="geometry" />
        </mxCell>
        <mxCell id="HkgX5lBla5T3OF_uM4Xi-37" value="Contains" style="text;html=1;strokeColor=none;fillColor=none;align=center;verticalAlign=middle;whiteSpace=wrap;rounded=0;" parent="1" vertex="1">
          <mxGeometry x="60" y="1030" width="60" height="30" as="geometry" />
        </mxCell>
        <mxCell id="HkgX5lBla5T3OF_uM4Xi-38" style="edgeStyle=orthogonalEdgeStyle;rounded=0;orthogonalLoop=1;jettySize=auto;html=1;exitX=0.5;exitY=1;exitDx=0;exitDy=0;startArrow=diamond;startFill=0;endArrow=block;endFill=1;" parent="1" edge="1">
          <mxGeometry relative="1" as="geometry">
            <mxPoint x="450" y="930" as="sourcePoint" />
            <mxPoint x="450" y="930" as="targetPoint" />
          </mxGeometry>
        </mxCell>
        <mxCell id="HkgX5lBla5T3OF_uM4Xi-40" value="1" style="text;html=1;strokeColor=none;fillColor=none;align=center;verticalAlign=middle;whiteSpace=wrap;rounded=0;" parent="1" vertex="1">
          <mxGeometry x="260" y="580" width="60" height="30" as="geometry" />
        </mxCell>
        <mxCell id="HkgX5lBla5T3OF_uM4Xi-41" value="1" style="text;html=1;strokeColor=none;fillColor=none;align=center;verticalAlign=middle;whiteSpace=wrap;rounded=0;" parent="1" vertex="1">
          <mxGeometry x="350" y="970" width="60" height="30" as="geometry" />
        </mxCell>
        <mxCell id="HkgX5lBla5T3OF_uM4Xi-42" value="1" style="text;html=1;strokeColor=none;fillColor=none;align=center;verticalAlign=middle;whiteSpace=wrap;rounded=0;" parent="1" vertex="1">
          <mxGeometry x="310" y="995" width="60" height="30" as="geometry" />
        </mxCell>
        <mxCell id="HkgX5lBla5T3OF_uM4Xi-43" value="1" style="text;html=1;strokeColor=none;fillColor=none;align=center;verticalAlign=middle;whiteSpace=wrap;rounded=0;" parent="1" vertex="1">
          <mxGeometry x="30" y="990" width="60" height="30" as="geometry" />
        </mxCell>
        <mxCell id="HkgX5lBla5T3OF_uM4Xi-44" value="1" style="text;html=1;strokeColor=none;fillColor=none;align=center;verticalAlign=middle;whiteSpace=wrap;rounded=0;" parent="1" vertex="1">
          <mxGeometry x="-9" y="1050" width="60" height="30" as="geometry" />
        </mxCell>
        <mxCell id="HkgX5lBla5T3OF_uM4Xi-45" value="" style="endArrow=none;html=1;rounded=0;strokeWidth=3;dashed=1;" parent="1" edge="1">
          <mxGeometry width="50" height="50" relative="1" as="geometry">
            <mxPoint x="770" y="1047.5" as="sourcePoint" />
            <mxPoint x="770.38" y="602.5" as="targetPoint" />
          </mxGeometry>
        </mxCell>
        <mxCell id="HkgX5lBla5T3OF_uM4Xi-47" value="" style="endArrow=none;html=1;rounded=0;strokeWidth=4;dashed=1;" parent="1" edge="1">
          <mxGeometry width="50" height="50" relative="1" as="geometry">
            <mxPoint x="969" y="1050" as="sourcePoint" />
            <mxPoint x="969.3800000000001" y="594" as="targetPoint" />
          </mxGeometry>
        </mxCell>
        <mxCell id="HkgX5lBla5T3OF_uM4Xi-48" value=":Instructor" style="rounded=0;whiteSpace=wrap;html=1;" parent="1" vertex="1">
          <mxGeometry x="707" y="549" width="120" height="60" as="geometry" />
        </mxCell>
        <mxCell id="HkgX5lBla5T3OF_uM4Xi-50" value=":Subject" style="rounded=0;whiteSpace=wrap;html=1;" parent="1" vertex="1">
          <mxGeometry x="910" y="549" width="120" height="60" as="geometry" />
        </mxCell>
        <mxCell id="HkgX5lBla5T3OF_uM4Xi-51" value="" style="endArrow=none;html=1;rounded=0;strokeWidth=4;dashed=1;" parent="1" edge="1">
          <mxGeometry width="50" height="50" relative="1" as="geometry">
            <mxPoint x="1179" y="1040" as="sourcePoint" />
            <mxPoint x="1179.38" y="679" as="targetPoint" />
          </mxGeometry>
        </mxCell>
        <mxCell id="HkgX5lBla5T3OF_uM4Xi-52" value="assessment :Assessment" style="rounded=0;whiteSpace=wrap;html=1;" parent="1" vertex="1">
          <mxGeometry x="1260" y="675" width="120" height="60" as="geometry" />
        </mxCell>
        <mxCell id="HkgX5lBla5T3OF_uM4Xi-56" value="" style="endArrow=none;html=1;rounded=0;strokeWidth=4;dashed=1;" parent="1" edge="1">
          <mxGeometry width="50" height="50" relative="1" as="geometry">
            <mxPoint x="1319" y="1240" as="sourcePoint" />
            <mxPoint x="1319.3700000000001" y="734" as="targetPoint" />
          </mxGeometry>
        </mxCell>
        <mxCell id="HkgX5lBla5T3OF_uM4Xi-57" value="&amp;nbsp;instruction:Instruction" style="rounded=0;whiteSpace=wrap;html=1;" parent="1" vertex="1">
          <mxGeometry x="1121" y="630" width="120" height="60" as="geometry" />
        </mxCell>
        <mxCell id="KKQJ6ejsrd65eqMpRz6--1" value="" style="endArrow=classic;html=1;rounded=0;dashed=1;" parent="1" edge="1">
          <mxGeometry width="50" height="50" relative="1" as="geometry">
            <mxPoint x="970" y="754.55" as="sourcePoint" />
            <mxPoint x="1180" y="755" as="targetPoint" />
          </mxGeometry>
        </mxCell>
        <mxCell id="KKQJ6ejsrd65eqMpRz6--4" value="new Instruction(content)" style="text;html=1;align=center;verticalAlign=middle;resizable=0;points=[];autosize=1;strokeColor=none;fillColor=none;" parent="1" vertex="1">
          <mxGeometry x="975" y="726" width="150" height="30" as="geometry" />
        </mxCell>
        <mxCell id="KKQJ6ejsrd65eqMpRz6--5" value="" style="endArrow=classic;html=1;rounded=0;dashed=1;strokeWidth=2;" parent="1" edge="1">
          <mxGeometry width="50" height="50" relative="1" as="geometry">
            <mxPoint x="970" y="800" as="sourcePoint" />
            <mxPoint x="1320" y="800" as="targetPoint" />
          </mxGeometry>
        </mxCell>
        <mxCell id="KKQJ6ejsrd65eqMpRz6--6" value="new Assessment(instruction, dueDate)" style="text;html=1;align=center;verticalAlign=middle;resizable=0;points=[];autosize=1;strokeColor=none;fillColor=none;" parent="1" vertex="1">
          <mxGeometry x="970" y="775" width="230" height="30" as="geometry" />
        </mxCell>
        <mxCell id="KKQJ6ejsrd65eqMpRz6--8" value="addAssessment(content, duedate)" style="text;html=1;align=center;verticalAlign=middle;resizable=0;points=[];autosize=1;strokeColor=none;fillColor=none;" parent="1" vertex="1">
          <mxGeometry x="765" y="610" width="210" height="30" as="geometry" />
        </mxCell>
        <mxCell id="KKQJ6ejsrd65eqMpRz6--10" value="assessment" style="text;html=1;align=center;verticalAlign=middle;resizable=0;points=[];autosize=1;strokeColor=none;fillColor=none;" parent="1" vertex="1">
          <mxGeometry x="990" y="805" width="90" height="30" as="geometry" />
        </mxCell>
        <mxCell id="KKQJ6ejsrd65eqMpRz6--11" value="" style="rounded=0;whiteSpace=wrap;html=1;" parent="1" vertex="1">
          <mxGeometry x="960" y="650" width="20" height="190" as="geometry" />
        </mxCell>
        <mxCell id="KKQJ6ejsrd65eqMpRz6--7" value="" style="endArrow=classic;html=1;rounded=0;" parent="1" edge="1">
          <mxGeometry width="50" height="50" relative="1" as="geometry">
            <mxPoint x="770" y="650" as="sourcePoint" />
            <mxPoint x="970" y="650" as="targetPoint" />
          </mxGeometry>
        </mxCell>
        <mxCell id="KKQJ6ejsrd65eqMpRz6--9" value="" style="endArrow=classic;html=1;rounded=0;strokeWidth=2;" parent="1" edge="1">
          <mxGeometry width="50" height="50" relative="1" as="geometry">
            <mxPoint x="1320" y="840" as="sourcePoint" />
            <mxPoint x="970" y="840" as="targetPoint" />
          </mxGeometry>
        </mxCell>
        <mxCell id="KKQJ6ejsrd65eqMpRz6--15" value="&amp;nbsp;submission : Submission" style="rounded=0;whiteSpace=wrap;html=1;" parent="1" vertex="1">
          <mxGeometry x="1630" y="630" width="120" height="60" as="geometry" />
        </mxCell>
        <mxCell id="KKQJ6ejsrd65eqMpRz6--16" value="" style="endArrow=none;html=1;rounded=0;strokeWidth=4;dashed=1;" parent="1" edge="1">
          <mxGeometry width="50" height="50" relative="1" as="geometry">
            <mxPoint x="1690" y="1235" as="sourcePoint" />
            <mxPoint x="1690.4699999999998" y="690" as="targetPoint" />
          </mxGeometry>
        </mxCell>
        <mxCell id="KKQJ6ejsrd65eqMpRz6--17" value=": Student" style="rounded=0;whiteSpace=wrap;html=1;" parent="1" vertex="1">
          <mxGeometry x="1400" y="560" width="120" height="60" as="geometry" />
        </mxCell>
        <mxCell id="KKQJ6ejsrd65eqMpRz6--18" value="" style="endArrow=none;html=1;rounded=0;strokeWidth=4;dashed=1;" parent="1" edge="1">
          <mxGeometry width="50" height="50" relative="1" as="geometry">
            <mxPoint x="1460" y="1280" as="sourcePoint" />
            <mxPoint x="1459.4699999999998" y="620" as="targetPoint" />
          </mxGeometry>
        </mxCell>
        <mxCell id="KKQJ6ejsrd65eqMpRz6--19" value="" style="endArrow=classic;html=1;rounded=0;strokeWidth=2;" parent="1" edge="1">
          <mxGeometry width="50" height="50" relative="1" as="geometry">
            <mxPoint x="1460" y="870" as="sourcePoint" />
            <mxPoint x="1320" y="870" as="targetPoint" />
          </mxGeometry>
        </mxCell>
        <mxCell id="KKQJ6ejsrd65eqMpRz6--20" value="createSubmission(subContent, noteContent)" style="text;html=1;align=center;verticalAlign=middle;resizable=0;points=[];autosize=1;strokeColor=none;fillColor=none;" parent="1" vertex="1">
          <mxGeometry x="1241" y="840" width="260" height="30" as="geometry" />
        </mxCell>
        <mxCell id="KKQJ6ejsrd65eqMpRz6--21" value="" style="endArrow=classic;html=1;rounded=0;dashed=1;strokeWidth=2;" parent="1" edge="1">
          <mxGeometry width="50" height="50" relative="1" as="geometry">
            <mxPoint x="1320" y="910" as="sourcePoint" />
            <mxPoint x="1690" y="910" as="targetPoint" />
          </mxGeometry>
        </mxCell>
        <mxCell id="KKQJ6ejsrd65eqMpRz6--22" value="new Submission(content, note)" style="text;html=1;align=center;verticalAlign=middle;resizable=0;points=[];autosize=1;strokeColor=none;fillColor=none;" parent="1" vertex="1">
          <mxGeometry x="1455" y="875" width="190" height="30" as="geometry" />
        </mxCell>
        <mxCell id="KKQJ6ejsrd65eqMpRz6--24" value="note :Note" style="rounded=0;whiteSpace=wrap;html=1;" parent="1" vertex="1">
          <mxGeometry x="1740" y="735" width="120" height="60" as="geometry" />
        </mxCell>
        <mxCell id="KKQJ6ejsrd65eqMpRz6--25" value="" style="endArrow=none;html=1;rounded=0;strokeWidth=4;dashed=1;" parent="1" edge="1">
          <mxGeometry width="50" height="50" relative="1" as="geometry">
            <mxPoint x="1800" y="1340" as="sourcePoint" />
            <mxPoint x="1800.4699999999998" y="795" as="targetPoint" />
          </mxGeometry>
        </mxCell>
        <mxCell id="KKQJ6ejsrd65eqMpRz6--27" value="" style="endArrow=classic;html=1;rounded=0;dashed=1;strokeWidth=2;" parent="1" edge="1">
          <mxGeometry width="50" height="50" relative="1" as="geometry">
            <mxPoint x="1690" y="980" as="sourcePoint" />
            <mxPoint x="1800" y="980" as="targetPoint" />
          </mxGeometry>
        </mxCell>
        <mxCell id="KKQJ6ejsrd65eqMpRz6--30" value="if noteContent not null" style="text;html=1;strokeColor=none;fillColor=none;align=center;verticalAlign=middle;whiteSpace=wrap;rounded=0;" parent="1" vertex="1">
          <mxGeometry x="1660" y="910" width="120" height="30" as="geometry" />
        </mxCell>
        <mxCell id="KKQJ6ejsrd65eqMpRz6--34" value="new Note(noteContent)" style="text;html=1;align=center;verticalAlign=middle;resizable=0;points=[];autosize=1;strokeColor=none;fillColor=none;" parent="1" vertex="1">
          <mxGeometry x="1670" y="950" width="150" height="30" as="geometry" />
        </mxCell>
        <mxCell id="KKQJ6ejsrd65eqMpRz6--35" value="" style="endArrow=classic;html=1;rounded=0;dashed=1;strokeWidth=2;" parent="1" edge="1">
          <mxGeometry width="50" height="50" relative="1" as="geometry">
            <mxPoint x="1800" y="1040" as="sourcePoint" />
            <mxPoint x="1690" y="1040" as="targetPoint" />
          </mxGeometry>
        </mxCell>
        <mxCell id="KKQJ6ejsrd65eqMpRz6--36" value="note" style="text;html=1;align=center;verticalAlign=middle;resizable=0;points=[];autosize=1;strokeColor=none;fillColor=none;" parent="1" vertex="1">
          <mxGeometry x="1725" y="1010" width="50" height="30" as="geometry" />
        </mxCell>
        <mxCell id="KKQJ6ejsrd65eqMpRz6--37" value="" style="endArrow=classic;html=1;rounded=0;dashed=1;strokeWidth=2;" parent="1" edge="1">
          <mxGeometry width="50" height="50" relative="1" as="geometry">
            <mxPoint x="1690" y="1158.95" as="sourcePoint" />
            <mxPoint x="1320" y="1158.95" as="targetPoint" />
          </mxGeometry>
        </mxCell>
        <mxCell id="KKQJ6ejsrd65eqMpRz6--38" value="submission" style="text;html=1;align=center;verticalAlign=middle;resizable=0;points=[];autosize=1;strokeColor=none;fillColor=none;" parent="1" vertex="1">
          <mxGeometry x="1460" y="1130" width="80" height="30" as="geometry" />
        </mxCell>
      </root>
    </mxGraphModel>
  </diagram>
</mxfile>
